<svg xmlns="http://www.w3.org/2000/svg" xmlns:xlink="http://www.w3.org/1999/xlink" viewBox="0 0 1024 1024"><defs><style>.cls-1{fill:url(#linear-gradient);}.cls-2{fill:#fff;}</style><linearGradient id="linear-gradient" gradientUnits="userSpaceOnUse" x1="0" y1="0" x2="1024" y2="1024"><stop offset="0" stop-color="#039"/><stop offset="1" stop-color="#f33"/></linearGradient><symbol id="Icon" data-name="Icon" viewBox="0 0 1024 1024"><path id="App_Icon_Placeholder" data-name="App Icon Placeholder" class="cls-1" d="M357,0H667C769.8,0,821.18,0,876.52,17.49a217.47,217.47,0,0,1,130,130C1024,202.83,1024,254.22,1024,357V667c0,102.8,0,154.19-17.5,209.53a217.43,217.43,0,0,1-130,130C821.18,1024,769.8,1024,667,1024H357c-102.79,0-154.17,0-209.51-17.5a217.43,217.43,0,0,1-130-130C0,821.18,0,769.79,0,667V357C0,254.22,0,202.83,17.5,147.48a217.47,217.47,0,0,1,130-130C202.82,0,254.2,0,357,0h0"/><g id="Car"><path class="cls-2" d="M353.72,657.46c5.67.41,11.4.83,17.18,1.2q2.88.21,5.79.37v-3.44Q365.38,656.6,353.72,657.46ZM662.37,317.33c1.14.51,2.26,1.05,3.39,1.63C664.63,318.37,663.51,317.84,662.37,317.33Z"/><path class="cls-2" d="M203.29,464.21l-.13-.39a1.58,1.58,0,0,0,.09.31l.13.4a.28.28,0,0,0,.06.14C203.38,464.52,203.34,464.37,203.29,464.21Zm-.84-4.87c0,.16,0,.32,0,.5s0,.56,0,.83a.44.44,0,0,0,0,.15C202.48,460.31,202.46,459.84,202.45,459.34Z"/><path class="cls-2" d="M806.73,424.5h-54.5c-3.45-5.51-6.21-10.35-9.67-15.16-2.76-3.45-4.83-7.58-7.58-11-3.23-4.53-7.54-10.33-12.46-16.79-.48-.63-1-1.3-1.49-1.95-7.42-9.76-16.07-20.77-24.31-31.05-3.45-4.28-6.83-8.42-10-12.3-.9-1.13-1.82-2.2-2.75-3.25-.41-.46-.84-.91-1.27-1.36s-.73-.74-1.08-1.11c-.66-.65-1.32-1.29-2-1.91-.34-.33-.68-.62-1-.93a66.39,66.39,0,0,0-8-6h0l-1.57-.95-1.11-.63c-.28-.15-.58-.31-.87-.48s-.8-.43-1.22-.63c-1.11-.58-2.23-1.13-3.39-1.63l-1.72-.74c-.53-.22-1.08-.43-1.61-.62l-.44-.17c-.92-.35-1.84-.66-2.77-1-.46-.16-.92-.31-1.39-.43s-.94-.29-1.41-.4l-.93-.26c-.31-.09-.62-.15-.94-.24s-.81-.21-1.21-.3c-.8-.18-1.57-.34-2.37-.5s-1.46-.27-2.19-.37-1.55-.24-2.35-.34a.52.52,0,0,1-.17,0l-2.28-.25h-.15c-.79-.07-1.61-.15-2.42-.18h-.21l-1.72-.08-1.08,0H389.31c-.29,0-.6,0-.88,0-.7,0-1.4,0-2.08.09-.84,0-1.67.1-2.51.18h0c-.75.06-1.52.14-2.26.23L381,312c-.56.06-1.11.13-1.64.22l-.83.12c-.68.12-1.38.23-2.08.37s-1.51.29-2.26.46l-.62.15-1.47.35-.75.19c-.3.08-.58.15-.88.25-1.33.37-2.66.79-4,1.26-.62.21-1.23.45-1.83.67l-2.28.93-2.24,1c-1.85.91-3.66,1.9-5.45,3-.34.23-.71.45-1.06.67h0c-.71.46-1.42.93-2.13,1.44l-1.06.75c-.34.24-.69.52-1,.77s-.69.54-1,.82-.68.54-1,.83c-.52.41-1,.84-1.53,1.3-.37.31-.74.65-1.11,1s-.91.87-1.39,1.31c-1.49,1.45-2.93,3-4.32,4.64-.46.55-.92,1.09-1.38,1.66-2.54,3.19-5.62,7.15-9,11.53-2.25,2.89-4.63,6-7.09,9.15l-3.3,4.29c-6.71,8.69-13.7,17.86-19.77,25.84l-1.63,2.16c-.83,1.1-1.63,2.16-2.41,3.17l-1.53,2c-3.22,4.29-6,7.93-7.93,10.57-.22.31-.45.59-.64.87l-.95,1.29-.62.85a4.4,4.4,0,0,1-.27.35l-.35.49c-.09.15-.16.25-.22.34a1,1,0,0,0-.12.19c-.82,1.13-1.57,2.3-2.34,3.48-1.24,2-2.44,4-3.67,6s-2.37,3.83-3.66,5.65h-53.8a15.81,15.81,0,0,0-11.3,4.58,13.41,13.41,0,0,0-1,1.11l-.4.52c-.27.34-.52.72-.76,1.09-.12.2-.23.37-.34.58l-.46.89a16.6,16.6,0,0,0-.77,1.89c-.06.2-.13.4-.19.63s-.19.71-.28,1.09a8.07,8.07,0,0,0-.19,1.13h0a16.49,16.49,0,0,0-.17,2.36V459a2,2,0,0,0,0,.34,13.76,13.76,0,0,0,.09,1.45,4.46,4.46,0,0,0,.06.54.57.57,0,0,0,0,.13c0,.19.06.37.09.56s0,.15,0,.25.06.24.08.36a1.24,1.24,0,0,0,.09.38v0a.45.45,0,0,0,0,.11c0,.13.06.25.1.37l0,.07a.11.11,0,0,0,0,.06v0a.08.08,0,0,1,0,.08v0c0,.15.09.28.14.4s.1.31.15.44.1.3.14.43a.67.67,0,0,1,.06.15c.09.22.18.42.27.62s.24.51.35.74c0,0,0,.05,0,.05s0,0,0,0l.17.31c0,.09.1.19.15.28l.05.12.26.37a2.14,2.14,0,0,0,.13.19c.12.21.28.41.4.61a6.08,6.08,0,0,0,.49.62q.48.57,1,1.11a15.75,15.75,0,0,0,11.3,4.57h33.1a252.93,252.93,0,0,0-8.45,39.31c-.33,2.49-.62,5-.92,7.61-.09.85-.18,1.71-.25,2.57-.16,1.71-.31,3.46-.46,5.22s-.25,3.53-.37,5.3c-.09,1.56-.19,3.14-.25,4.73s-.14,3.17-.18,4.78v0c0,1.29-.06,2.57-.09,3.88,0,.32,0,.63,0,1v.88c0,1.34,0,2.7,0,4V696.91a18.1,18.1,0,0,0,.16,2.36h0c.06.38.12.77.21,1.12s.17.74.26,1.11c.08.21.14.42.2.63a16.73,16.73,0,0,0,.75,1.88c.15.31.3.6.47.9l.35.56c.23.37.48.74.75,1.1l.4.52c.31.38.65.75,1,1.12a15.87,15.87,0,0,0,11.29,4.58h58.64a15.62,15.62,0,0,0,15.87-15.88V655.53l5.67.51,8.93.72,8.35.64h0q11.64-.85,23-1.85V659l5.36.32,2.14.12L393,660l5.52.3c1.82.08,3.63.19,5.43.29l6.46.3c1.61.07,3.23.16,4.85.22q14.09.61,28.48,1l5.77.16q8.69.26,17.47.42l9,.18,6.76.08,6.61.08c2.76,0,5.5.06,8.27.06h8c2.16,0,4.32,0,6.48,0s4.32,0,6.49,0h8l8.26-.06,6.62-.08c2.25,0,4.5-.05,6.75-.08l9-.18c2.91-.05,5.81-.12,8.72-.19l5.64-.15,3.09-.08c1.93-.07,3.85-.11,5.76-.17q13.16-.4,26-.94l5.16-.22,8.64-.41,5.44-.28c1.85-.09,3.69-.2,5.53-.32,5.5-.29,11-.6,16.37-.94q11.66-.74,23-1.59h0c2.84-.2,5.68-.41,8.49-.65l8.78-.71c1.91-.16,3.81-.31,5.69-.49V697a16.14,16.14,0,0,0,1.87,7.64,14.83,14.83,0,0,0,2.7,3.66,15.87,15.87,0,0,0,11.3,4.56H768A15.61,15.61,0,0,0,783.9,697V554.16c0-30.36-4.14-56.56-11-79.34H806A15.6,15.6,0,0,0,821.84,459V440.34C822.57,432.11,815.68,424.5,806.73,424.5Zm-384.52,127h-38c-.44.11-.87.2-1.3.29s-.82.15-1.23.21h-.07c-.42.07-.83.1-1.25.15h0c-.43,0-.85,0-1.26,0H285.23a11.63,11.63,0,0,1-11.74-11.71l1.39-17.25A13.36,13.36,0,0,1,288,511.44h3.33a8.86,8.86,0,0,1,5.36-1.38H419.46a12.88,12.88,0,0,1,13.12,11.73L434,539C434.64,545.92,429.13,551.45,422.21,551.45Zm-99.74-98a15.31,15.31,0,0,1-15.18-15.18c0-4.14,3.45-8.95,4.83-11,3-4.75,28.5-38.21,43-56.65,2.34-3,4.37-5.5,6-7.5a49.8,49.8,0,0,1,18.73-14.6,56.77,56.77,0,0,1,23.35-4.72h69.68v2.76a15.61,15.61,0,0,0,15.87,15.86h49a15.62,15.62,0,0,0,15.86-15.86v-2.76h70.36a57.5,57.5,0,0,1,21.58,3.95A49.68,49.68,0,0,1,666,363.13c1.89,2.35,3.94,4.87,6,7.5,10.68,13.48,22.94,29.47,29.86,38.71.7.68,1.38,1.36,1.38,2.07,3.45,4.83,7.6,10.35,11,15.87,1.36,2.08,4.82,6.89,4.82,11A15.31,15.31,0,0,1,704,453.49Zm416.65,98h-38a21.36,21.36,0,0,1-5.17.68H602.11a11.62,11.62,0,0,1-11.73-11.71l1.39-17.25a13.33,13.33,0,0,1,13.09-11.73h3.35c.15-.1.31-.22.47-.31l.36-.19.35-.18c.18-.06.37-.15.58-.21a2.52,2.52,0,0,1,.47-.13,3.21,3.21,0,0,1,.52-.11,12.3,12.3,0,0,1,2.61-.25H736.35a12.85,12.85,0,0,1,13.11,11.73L750.85,539C751.53,545.92,746,551.45,739.12,551.45Z"/></g><g id="Signal"><path class="cls-2" d="M856.1,306.74A135.07,135.07,0,0,0,724.58,168.21q-3.5-.09-7,0a14.57,14.57,0,1,0,.93,29.13A105.82,105.82,0,0,1,827,300.42c0,1.79,0,3.59,0,5.39a14.57,14.57,0,0,0,29.12.93Z"/><path class="cls-2" d="M935.55,289c2.86-107.76-82.18-197.43-189.94-200.28-3.44-.09-6.89-.09-10.33,0a14.55,14.55,0,0,0,1,29,166.36,166.36,0,0,1,170.22,162.4q.09,3.92,0,7.83a14.52,14.52,0,1,0,29,1Z"/><circle class="cls-2" cx="734.35" cy="289.96" r="29.11"/><path class="cls-2" d="M734.35,290Z"/><path class="cls-2" d="M734.35,290Z"/><path class="cls-2" d="M734.35,290Z"/><path class="cls-2" d="M734.35,290Z"/><path class="cls-2" d="M734.35,290Z"/><path class="cls-2" d="M734.35,290Z"/><path class="cls-2" d="M734.35,290Z"/><path class="cls-2" d="M734.35,290Z"/></g></symbol></defs><g id="Layer_2" data-name="Layer 2"><g id="App_Icon_Kit_B" data-name="App Icon Kit B"><g id="App_Icon_and_Badge" data-name="App Icon and Badge"><g id="Main"><use width="1024" height="1024" xlink:href="#Icon"/></g></g></g></g></svg>